<?xml version="1.0" encoding="UTF-8" standalone="no"?>
<!DOCTYPE svg PUBLIC "-//W3C//DTD SVG 1.1//EN"
 "http://www.w3.org/Graphics/SVG/1.1/DTD/svg11.dtd">
<!-- Generated by graphviz version 2.38.0 (20140413.2041)
 -->
<!-- Title: httpServer_cgi Pages: 1 -->
<svg width="267pt" height="314pt"
 viewBox="0.00 0.00 267.00 314.00" xmlns="http://www.w3.org/2000/svg" xmlns:xlink="http://www.w3.org/1999/xlink">
<g id="graph0" class="graph" transform="scale(1 1) rotate(0) translate(4 310)">
<title>httpServer_cgi</title>
<polygon fill="white" stroke="none" points="-4,4 -4,-310 263,-310 263,4 -4,4"/>
<!-- root -->
<g id="node1" class="node"><title>root</title>
<path fill="none" stroke="black" d="M42,-130C42,-130 12,-130 12,-130 6,-130 0,-124 0,-118 0,-118 0,-106 0,-106 0,-100 6,-94 12,-94 12,-94 42,-94 42,-94 48,-94 54,-100 54,-106 54,-106 54,-118 54,-118 54,-124 48,-130 42,-130"/>
<text text-anchor="middle" x="27" y="-108.3" font-family="Times,serif" font-size="14.00">./</text>
</g>
<!-- dir1 -->
<g id="node2" class="node"><title>dir1</title>
<path fill="none" stroke="black" d="M144,-211C144,-211 113,-211 113,-211 107,-211 101,-205 101,-199 101,-199 101,-187 101,-187 101,-181 107,-175 113,-175 113,-175 144,-175 144,-175 150,-175 156,-181 156,-187 156,-187 156,-199 156,-199 156,-205 150,-211 144,-211"/>
<text text-anchor="middle" x="128.5" y="-189.3" font-family="Times,serif" font-size="14.00">cgi&#45;bin</text>
</g>
<!-- root&#45;&gt;dir1 -->
<g id="edge1" class="edge"><title>root&#45;&gt;dir1</title>
<path fill="none" stroke="black" d="M50.5781,-130.38C64.4143,-141.644 82.2953,-156.2 97.3348,-168.443"/>
<polygon fill="black" stroke="black" points="95.3892,-171.373 105.354,-174.972 99.8085,-165.944 95.3892,-171.373"/>
</g>
<!-- dir2 -->
<g id="node3" class="node"><title>dir2</title>
<path fill="none" stroke="black" d="M143.5,-130C143.5,-130 113.5,-130 113.5,-130 107.5,-130 101.5,-124 101.5,-118 101.5,-118 101.5,-106 101.5,-106 101.5,-100 107.5,-94 113.5,-94 113.5,-94 143.5,-94 143.5,-94 149.5,-94 155.5,-100 155.5,-106 155.5,-106 155.5,-118 155.5,-118 155.5,-124 149.5,-130 143.5,-130"/>
<text text-anchor="middle" x="128.5" y="-108.3" font-family="Times,serif" font-size="14.00">htbin</text>
</g>
<!-- root&#45;&gt;dir2 -->
<g id="edge2" class="edge"><title>root&#45;&gt;dir2</title>
<path fill="none" stroke="black" d="M54.1425,-112C65.3648,-112 78.6736,-112 90.854,-112"/>
<polygon fill="black" stroke="black" points="91.1867,-115.5 101.187,-112 91.1866,-108.5 91.1867,-115.5"/>
</g>
<!-- file1 -->
<g id="node4" class="node"><title>file1</title>
<path fill="#f2f2f2" stroke="none" d="M155,-76C155,-76 102,-76 102,-76 96,-76 90,-70 90,-64 90,-64 90,-52 90,-52 90,-46 96,-40 102,-40 102,-40 155,-40 155,-40 161,-40 167,-46 167,-52 167,-52 167,-64 167,-64 167,-70 161,-76 155,-76"/>
<text text-anchor="middle" x="128.5" y="-54.3" font-family="Times,serif" font-size="14.00">index.html</text>
</g>
<!-- root&#45;&gt;file1 -->
<g id="edge3" class="edge"><title>root&#45;&gt;file1</title>
<path fill="none" stroke="black" d="M54.1425,-97.8121C63.5835,-92.6883 74.5012,-86.7632 84.9814,-81.0754"/>
<polygon fill="black" stroke="black" points="86.9109,-84.0105 94.0305,-76.1643 83.572,-77.8582 86.9109,-84.0105"/>
</g>
<!-- file2_1_py -->
<g id="node5" class="node"><title>file2_1_py</title>
<path fill="#f2f2f2" stroke="none" d="M246,-306C246,-306 216,-306 216,-306 210,-306 204,-300 204,-294 204,-294 204,-282 204,-282 204,-276 210,-270 216,-270 216,-270 246,-270 246,-270 252,-270 258,-276 258,-282 258,-282 258,-294 258,-294 258,-300 252,-306 246,-306"/>
<text text-anchor="middle" x="231" y="-284.3" font-family="Times,serif" font-size="14.00">cgi.py</text>
</g>
<!-- dir1&#45;&gt;file2_1_py -->
<g id="edge4" class="edge"><title>dir1&#45;&gt;file2_1_py</title>
<path fill="none" stroke="black" d="M148.877,-211.317C164.31,-225.905 186.086,-246.489 203.191,-262.658"/>
<polygon fill="black" stroke="black" points="201.011,-265.413 210.682,-269.739 205.819,-260.326 201.011,-265.413"/>
</g>
<!-- file2_1_php -->
<g id="node6" class="node"><title>file2_1_php</title>
<path fill="#f2f2f2" stroke="none" d="M247,-252C247,-252 215,-252 215,-252 209,-252 203,-246 203,-240 203,-240 203,-228 203,-228 203,-222 209,-216 215,-216 215,-216 247,-216 247,-216 253,-216 259,-222 259,-228 259,-228 259,-240 259,-240 259,-246 253,-252 247,-252"/>
<text text-anchor="middle" x="231" y="-230.3" font-family="Times,serif" font-size="14.00">cgi.php</text>
</g>
<!-- dir1&#45;&gt;file2_1_php -->
<g id="edge5" class="edge"><title>dir1&#45;&gt;file2_1_php</title>
<path fill="none" stroke="black" d="M156.168,-203.88C167.548,-208.522 181.014,-214.016 193.31,-219.032"/>
<polygon fill="black" stroke="black" points="192.276,-222.39 202.857,-222.927 194.92,-215.909 192.276,-222.39"/>
</g>
<!-- file2_1_pl -->
<g id="node7" class="node"><title>file2_1_pl</title>
<path fill="#f2f2f2" stroke="none" d="M246,-198C246,-198 216,-198 216,-198 210,-198 204,-192 204,-186 204,-186 204,-174 204,-174 204,-168 210,-162 216,-162 216,-162 246,-162 246,-162 252,-162 258,-168 258,-174 258,-174 258,-186 258,-186 258,-192 252,-198 246,-198"/>
<text text-anchor="middle" x="231" y="-176.3" font-family="Times,serif" font-size="14.00">cgi.pl</text>
</g>
<!-- dir1&#45;&gt;file2_1_pl -->
<g id="edge6" class="edge"><title>dir1&#45;&gt;file2_1_pl</title>
<path fill="none" stroke="black" d="M156.168,-189.55C167.708,-188.058 181.393,-186.287 193.827,-184.679"/>
<polygon fill="black" stroke="black" points="194.435,-188.13 203.903,-183.376 193.537,-181.188 194.435,-188.13"/>
</g>
<!-- file2_2_py -->
<g id="node8" class="node"><title>file2_2_py</title>
<path fill="#f2f2f2" stroke="none" d="M246,-144C246,-144 216,-144 216,-144 210,-144 204,-138 204,-132 204,-132 204,-120 204,-120 204,-114 210,-108 216,-108 216,-108 246,-108 246,-108 252,-108 258,-114 258,-120 258,-120 258,-132 258,-132 258,-138 252,-144 246,-144"/>
<text text-anchor="middle" x="231" y="-122.3" font-family="Times,serif" font-size="14.00">cgi.py</text>
</g>
<!-- dir2&#45;&gt;file2_2_py -->
<g id="edge7" class="edge"><title>dir2&#45;&gt;file2_2_py</title>
<path fill="none" stroke="black" d="M155.643,-115.642C167.275,-117.262 181.165,-119.197 193.775,-120.954"/>
<polygon fill="black" stroke="black" points="193.601,-124.463 203.988,-122.376 194.567,-117.53 193.601,-124.463"/>
</g>
<!-- file2_2_php -->
<g id="node9" class="node"><title>file2_2_php</title>
<path fill="#f2f2f2" stroke="none" d="M247,-90C247,-90 215,-90 215,-90 209,-90 203,-84 203,-78 203,-78 203,-66 203,-66 203,-60 209,-54 215,-54 215,-54 247,-54 247,-54 253,-54 259,-60 259,-66 259,-66 259,-78 259,-78 259,-84 253,-90 247,-90"/>
<text text-anchor="middle" x="231" y="-68.3" font-family="Times,serif" font-size="14.00">cgi.php</text>
</g>
<!-- dir2&#45;&gt;file2_2_php -->
<g id="edge8" class="edge"><title>dir2&#45;&gt;file2_2_php</title>
<path fill="none" stroke="black" d="M155.643,-101.595C167.229,-96.9834 181.057,-91.4799 193.627,-86.4768"/>
<polygon fill="black" stroke="black" points="194.94,-89.7214 202.937,-82.7715 192.351,-83.2176 194.94,-89.7214"/>
</g>
<!-- file2_2_pl -->
<g id="node10" class="node"><title>file2_2_pl</title>
<path fill="#f2f2f2" stroke="none" d="M246,-36C246,-36 216,-36 216,-36 210,-36 204,-30 204,-24 204,-24 204,-12 204,-12 204,-6 210,-0 216,-0 216,-0 246,-0 246,-0 252,-0 258,-6 258,-12 258,-12 258,-24 258,-24 258,-30 252,-36 246,-36"/>
<text text-anchor="middle" x="231" y="-14.3" font-family="Times,serif" font-size="14.00">cgi.pl</text>
</g>
<!-- dir2&#45;&gt;file2_2_pl -->
<g id="edge9" class="edge"><title>dir2&#45;&gt;file2_2_pl</title>
<path fill="none" stroke="black" d="M155.881,-94.1046C159.716,-91.1911 163.536,-88.1064 167,-85 184.807,-69.0323 186.538,-62.351 203,-45 203.513,-44.459 204.034,-43.9134 204.559,-43.3646"/>
<polygon fill="black" stroke="black" points="207.096,-45.7763 211.568,-36.1715 202.083,-40.891 207.096,-45.7763"/>
</g>
</g>
</svg>
